<svg width="128" height="128" viewBox="0 0 128 128" fill="none" xmlns="http://www.w3.org/2000/svg">
<rect width="128" height="128" fill="#131313"/>
<path d="M50.562 33.2372H91.4124V72.0949V110.953H82.1132C82.1132 110.953 91.4124 109.79 87.427 82.3905C83.4416 54.9909 50.562 33.2372 50.562 33.2372Z" fill="url(#paint0_linear_2_36)"/>
<path d="M55.2117 49.843H96.062V88.7007V127.558H86.7628C86.7628 127.558 96.062 126.396 92.0766 98.9963C88.0912 71.5967 55.2117 49.843 55.2117 49.843Z" fill="url(#paint1_linear_2_36)"/>
<g filter="url(#filter0_d_2_36)">
<path d="M55.2117 23.6058H96.062V62.4635V101.321H86.7628C86.7628 101.321 96.062 100.159 92.0766 72.7591C88.0912 45.3595 55.2117 23.6058 55.2117 23.6058Z" fill="url(#paint2_linear_2_36)" shape-rendering="crispEdges"/>
</g>
<g filter="url(#filter1_d_2_36)">
<path d="M59.8613 40.2117H100.712V79.0693V117.927H91.4124C91.4124 117.927 100.712 116.765 96.7263 89.3649C92.7408 61.9653 59.8613 40.2117 59.8613 40.2117Z" fill="url(#paint3_linear_2_36)" shape-rendering="crispEdges"/>
</g>
<g filter="url(#filter2_d_2_36)">
<path d="M60.5255 14.9708H101.376V53.8284V92.6861H92.0767C92.0767 92.6861 101.376 91.5237 97.3905 64.1241C93.4051 36.7244 60.5255 14.9708 60.5255 14.9708Z" fill="url(#paint4_linear_2_36)" shape-rendering="crispEdges"/>
</g>
<g filter="url(#filter3_d_2_36)">
<path d="M65.1752 31.5766H106.026V70.4343V109.292H96.7263C96.7263 109.292 106.026 108.13 102.04 80.7299C98.0547 53.3303 65.1752 31.5766 65.1752 31.5766Z" fill="url(#paint5_linear_2_36)" shape-rendering="crispEdges"/>
</g>
<g filter="url(#filter4_d_2_36)">
<path d="M67.5 7H108.35V45.8577V84.7153H99.0511C99.0511 84.7153 108.35 83.5529 104.365 56.1533C100.38 28.7536 67.5 7 67.5 7Z" fill="url(#paint6_linear_2_36)" shape-rendering="crispEdges"/>
</g>
<g filter="url(#filter5_d_2_36)">
<path d="M72.1496 23.6058H113V62.4635V101.321H103.701C103.701 101.321 113 100.159 109.015 72.7591C105.029 45.3595 72.1496 23.6058 72.1496 23.6058Z" fill="url(#paint7_linear_2_36)" shape-rendering="crispEdges"/>
</g>
<path d="M26.763 84.524C27.0563 85.162 27.2763 85.6057 27.423 85.855C27.577 86.1044 27.7163 86.2657 27.841 86.339V86.405C27.753 86.4417 27.6613 86.46 27.566 86.46C27.4633 86.46 27.3717 86.4234 27.291 86.35C27.2103 86.2767 27.1003 86.119 26.961 85.877C26.829 85.6277 26.6457 85.2427 26.411 84.722C26.1397 84.1134 25.905 83.6697 25.707 83.391C25.509 83.105 25.2743 82.8924 25.003 82.753C24.827 82.7677 24.695 82.775 24.607 82.775H23.386V86.075C23.386 86.3317 23.2943 86.46 23.111 86.46C23.067 86.46 23.0193 86.4454 22.968 86.416V80.762C22.968 80.2707 22.946 79.8784 22.902 79.585C22.8653 79.2917 22.792 79.035 22.682 78.815L22.748 78.672C23.0413 78.672 23.342 78.661 23.65 78.639C23.7453 78.6317 23.8883 78.6244 24.079 78.617C24.277 78.6097 24.453 78.606 24.607 78.606C25.4283 78.606 26.081 78.793 26.565 79.167C27.0563 79.5337 27.302 80.0324 27.302 80.663C27.302 81.1764 27.1443 81.609 26.829 81.961C26.5137 82.313 26.0773 82.5514 25.52 82.676C25.7327 82.8007 25.927 82.9987 26.103 83.27C26.2863 83.5414 26.5063 83.9594 26.763 84.524ZM23.177 79.024C23.3163 79.3907 23.386 79.97 23.386 80.762V82.434H24.783C25.421 82.434 25.927 82.2764 26.301 81.961C26.6823 81.6384 26.873 81.2057 26.873 80.663C26.873 80.1424 26.6823 79.728 26.301 79.42C25.927 79.112 25.421 78.958 24.783 78.958C24.5923 78.958 24.4127 78.9617 24.244 78.969C24.0753 78.9764 23.9287 78.9837 23.804 78.991C23.5693 79.013 23.3603 79.024 23.177 79.024ZM35.933 86.526C35.4124 86.526 34.998 86.372 34.69 86.064C34.382 85.756 34.228 85.3417 34.228 84.821C34.228 84.2857 34.4004 83.864 34.745 83.556C35.097 83.2407 35.5664 83.083 36.153 83.083C36.4904 83.083 36.791 83.1307 37.055 83.226C37.319 83.3214 37.5317 83.4534 37.693 83.622V82.786C37.693 82.2507 37.55 81.8254 37.264 81.51C36.9854 81.1874 36.6077 81.026 36.131 81.026C35.5737 81.026 35.0714 81.2607 34.624 81.73C34.4774 81.73 34.404 81.664 34.404 81.532C34.404 81.4514 34.4847 81.345 34.646 81.213C34.8147 81.0737 35.0347 80.9527 35.306 80.85C35.5774 80.7474 35.867 80.696 36.175 80.696C36.7544 80.696 37.22 80.8867 37.572 81.268C37.924 81.6494 38.1 82.1554 38.1 82.786V86.075C38.1 86.3317 38.012 86.46 37.836 86.46C37.792 86.46 37.7444 86.4454 37.693 86.416V85.712C37.4877 85.9614 37.231 86.1594 36.923 86.306C36.615 86.4527 36.285 86.526 35.933 86.526ZM35.889 86.196C36.1824 86.196 36.4684 86.1374 36.747 86.02C37.0257 85.8954 37.253 85.723 37.429 85.503C37.605 85.283 37.693 85.03 37.693 84.744V84.381C37.693 84.0657 37.5354 83.8274 37.22 83.666C36.912 83.4974 36.538 83.413 36.098 83.413C35.6507 83.413 35.295 83.5414 35.031 83.798C34.7744 84.0547 34.646 84.3994 34.646 84.832C34.646 85.25 34.756 85.5837 34.976 85.833C35.2034 86.075 35.5077 86.196 35.889 86.196ZM46.9751 86.526C46.3077 86.526 45.7761 86.2804 45.3801 85.789C44.9914 85.2977 44.7971 84.6194 44.7971 83.754C44.7971 83.1454 44.8961 82.61 45.0941 82.148C45.2921 81.686 45.5707 81.3304 45.9301 81.081C46.2967 80.8244 46.7257 80.696 47.2171 80.696C47.5911 80.696 47.9211 80.7694 48.2071 80.916C48.4931 81.0554 48.7314 81.2424 48.9221 81.477V78.837C48.9221 78.5804 49.0101 78.452 49.1861 78.452C49.2301 78.452 49.2777 78.4667 49.3291 78.496V86.075C49.3291 86.3317 49.2411 86.46 49.0651 86.46C49.0211 86.46 48.9734 86.4454 48.9221 86.416V85.36C48.7094 85.7267 48.4381 86.0127 48.1081 86.218C47.7781 86.4234 47.4004 86.526 46.9751 86.526ZM46.9751 86.196C47.3491 86.196 47.6827 86.1007 47.9761 85.91C48.2767 85.712 48.5077 85.4444 48.6691 85.107C48.8377 84.7624 48.9221 84.3737 48.9221 83.941V82.665C48.9221 82.1664 48.7571 81.7704 48.4271 81.477C48.1044 81.1764 47.7011 81.026 47.2171 81.026C46.5937 81.026 46.1024 81.2754 45.7431 81.774C45.3911 82.2654 45.2151 82.9254 45.2151 83.754C45.2151 84.524 45.3691 85.1254 45.6771 85.558C45.9851 85.9834 46.4177 86.196 46.9751 86.196ZM56.7461 86.46C56.7021 86.46 56.6544 86.4454 56.6031 86.416V78.837C56.6031 78.5804 56.6911 78.452 56.8671 78.452C56.9111 78.452 56.9587 78.4667 57.0101 78.496V81.928C57.1641 81.5614 57.3951 81.2644 57.7031 81.037C58.0111 80.8097 58.3777 80.696 58.8031 80.696C59.3677 80.696 59.8151 80.8794 60.1451 81.246C60.4824 81.6127 60.6511 82.1077 60.6511 82.731V86.075C60.6511 86.3317 60.5631 86.46 60.3871 86.46C60.3431 86.46 60.2954 86.4454 60.2441 86.416V82.731C60.2441 82.2104 60.1121 81.7997 59.8481 81.499C59.5914 81.191 59.2431 81.037 58.8031 81.037C58.4437 81.037 58.1284 81.1434 57.8571 81.356C57.5857 81.5614 57.3767 81.851 57.2301 82.225C57.0834 82.599 57.0101 83.0317 57.0101 83.523V86.075C57.0101 86.3317 56.9221 86.46 56.7461 86.46ZM69.1625 86.526C68.6418 86.526 68.2275 86.372 67.9195 86.064C67.6115 85.756 67.4575 85.3417 67.4575 84.821C67.4575 84.2857 67.6298 83.864 67.9745 83.556C68.3265 83.2407 68.7958 83.083 69.3825 83.083C69.7198 83.083 70.0205 83.1307 70.2845 83.226C70.5485 83.3214 70.7612 83.4534 70.9225 83.622V82.786C70.9225 82.2507 70.7795 81.8254 70.4935 81.51C70.2148 81.1874 69.8372 81.026 69.3605 81.026C68.8032 81.026 68.3008 81.2607 67.8535 81.73C67.7068 81.73 67.6335 81.664 67.6335 81.532C67.6335 81.4514 67.7142 81.345 67.8755 81.213C68.0442 81.0737 68.2642 80.9527 68.5355 80.85C68.8068 80.7474 69.0965 80.696 69.4045 80.696C69.9838 80.696 70.4495 80.8867 70.8015 81.268C71.1535 81.6494 71.3295 82.1554 71.3295 82.786V86.075C71.3295 86.3317 71.2415 86.46 71.0655 86.46C71.0215 86.46 70.9738 86.4454 70.9225 86.416V85.712C70.7172 85.9614 70.4605 86.1594 70.1525 86.306C69.8445 86.4527 69.5145 86.526 69.1625 86.526ZM69.1185 86.196C69.4118 86.196 69.6978 86.1374 69.9765 86.02C70.2552 85.8954 70.4825 85.723 70.6585 85.503C70.8345 85.283 70.9225 85.03 70.9225 84.744V84.381C70.9225 84.0657 70.7648 83.8274 70.4495 83.666C70.1415 83.4974 69.7675 83.413 69.3275 83.413C68.8802 83.413 68.5245 83.5414 68.2605 83.798C68.0038 84.0547 67.8755 84.3994 67.8755 84.832C67.8755 85.25 67.9855 85.5837 68.2055 85.833C68.4328 86.075 68.7372 86.196 69.1185 86.196Z" fill="#E06529"/>
<defs>
<filter id="filter0_d_2_36" x="51.2117" y="23.6058" width="48.8504" height="85.7153" filterUnits="userSpaceOnUse" color-interpolation-filters="sRGB">
<feFlood flood-opacity="0" result="BackgroundImageFix"/>
<feColorMatrix in="SourceAlpha" type="matrix" values="0 0 0 0 0 0 0 0 0 0 0 0 0 0 0 0 0 0 127 0" result="hardAlpha"/>
<feOffset dy="4"/>
<feGaussianBlur stdDeviation="2"/>
<feComposite in2="hardAlpha" operator="out"/>
<feColorMatrix type="matrix" values="0 0 0 0 0 0 0 0 0 0 0 0 0 0 0 0 0 0 0.25 0"/>
<feBlend mode="normal" in2="BackgroundImageFix" result="effect1_dropShadow_2_36"/>
<feBlend mode="normal" in="SourceGraphic" in2="effect1_dropShadow_2_36" result="shape"/>
</filter>
<filter id="filter1_d_2_36" x="55.8613" y="40.2117" width="48.8504" height="85.7153" filterUnits="userSpaceOnUse" color-interpolation-filters="sRGB">
<feFlood flood-opacity="0" result="BackgroundImageFix"/>
<feColorMatrix in="SourceAlpha" type="matrix" values="0 0 0 0 0 0 0 0 0 0 0 0 0 0 0 0 0 0 127 0" result="hardAlpha"/>
<feOffset dy="4"/>
<feGaussianBlur stdDeviation="2"/>
<feComposite in2="hardAlpha" operator="out"/>
<feColorMatrix type="matrix" values="0 0 0 0 0 0 0 0 0 0 0 0 0 0 0 0 0 0 0.25 0"/>
<feBlend mode="normal" in2="BackgroundImageFix" result="effect1_dropShadow_2_36"/>
<feBlend mode="normal" in="SourceGraphic" in2="effect1_dropShadow_2_36" result="shape"/>
</filter>
<filter id="filter2_d_2_36" x="56.5255" y="14.9708" width="48.8504" height="85.7153" filterUnits="userSpaceOnUse" color-interpolation-filters="sRGB">
<feFlood flood-opacity="0" result="BackgroundImageFix"/>
<feColorMatrix in="SourceAlpha" type="matrix" values="0 0 0 0 0 0 0 0 0 0 0 0 0 0 0 0 0 0 127 0" result="hardAlpha"/>
<feOffset dy="4"/>
<feGaussianBlur stdDeviation="2"/>
<feComposite in2="hardAlpha" operator="out"/>
<feColorMatrix type="matrix" values="0 0 0 0 0 0 0 0 0 0 0 0 0 0 0 0 0 0 0.25 0"/>
<feBlend mode="normal" in2="BackgroundImageFix" result="effect1_dropShadow_2_36"/>
<feBlend mode="normal" in="SourceGraphic" in2="effect1_dropShadow_2_36" result="shape"/>
</filter>
<filter id="filter3_d_2_36" x="61.1752" y="31.5766" width="48.8504" height="85.7153" filterUnits="userSpaceOnUse" color-interpolation-filters="sRGB">
<feFlood flood-opacity="0" result="BackgroundImageFix"/>
<feColorMatrix in="SourceAlpha" type="matrix" values="0 0 0 0 0 0 0 0 0 0 0 0 0 0 0 0 0 0 127 0" result="hardAlpha"/>
<feOffset dy="4"/>
<feGaussianBlur stdDeviation="2"/>
<feComposite in2="hardAlpha" operator="out"/>
<feColorMatrix type="matrix" values="0 0 0 0 0 0 0 0 0 0 0 0 0 0 0 0 0 0 0.25 0"/>
<feBlend mode="normal" in2="BackgroundImageFix" result="effect1_dropShadow_2_36"/>
<feBlend mode="normal" in="SourceGraphic" in2="effect1_dropShadow_2_36" result="shape"/>
</filter>
<filter id="filter4_d_2_36" x="63.5" y="7" width="48.8504" height="85.7153" filterUnits="userSpaceOnUse" color-interpolation-filters="sRGB">
<feFlood flood-opacity="0" result="BackgroundImageFix"/>
<feColorMatrix in="SourceAlpha" type="matrix" values="0 0 0 0 0 0 0 0 0 0 0 0 0 0 0 0 0 0 127 0" result="hardAlpha"/>
<feOffset dy="4"/>
<feGaussianBlur stdDeviation="2"/>
<feComposite in2="hardAlpha" operator="out"/>
<feColorMatrix type="matrix" values="0 0 0 0 0 0 0 0 0 0 0 0 0 0 0 0 0 0 0.25 0"/>
<feBlend mode="normal" in2="BackgroundImageFix" result="effect1_dropShadow_2_36"/>
<feBlend mode="normal" in="SourceGraphic" in2="effect1_dropShadow_2_36" result="shape"/>
</filter>
<filter id="filter5_d_2_36" x="68.1496" y="23.6058" width="48.8504" height="85.7153" filterUnits="userSpaceOnUse" color-interpolation-filters="sRGB">
<feFlood flood-opacity="0" result="BackgroundImageFix"/>
<feColorMatrix in="SourceAlpha" type="matrix" values="0 0 0 0 0 0 0 0 0 0 0 0 0 0 0 0 0 0 127 0" result="hardAlpha"/>
<feOffset dy="4"/>
<feGaussianBlur stdDeviation="2"/>
<feComposite in2="hardAlpha" operator="out"/>
<feColorMatrix type="matrix" values="0 0 0 0 0 0 0 0 0 0 0 0 0 0 0 0 0 0 0.25 0"/>
<feBlend mode="normal" in2="BackgroundImageFix" result="effect1_dropShadow_2_36"/>
<feBlend mode="normal" in="SourceGraphic" in2="effect1_dropShadow_2_36" result="shape"/>
</filter>
<linearGradient id="paint0_linear_2_36" x1="70.9872" y1="33.2372" x2="70.9872" y2="110.953" gradientUnits="userSpaceOnUse">
<stop stop-color="#CF2015"/>
<stop offset="0.0001" stop-color="#CF6E15" stop-opacity="0.723958"/>
<stop offset="1" stop-color="#CF2015" stop-opacity="0"/>
</linearGradient>
<linearGradient id="paint1_linear_2_36" x1="75.6369" y1="49.843" x2="75.6369" y2="127.558" gradientUnits="userSpaceOnUse">
<stop stop-color="#CF2015"/>
<stop offset="0.0001" stop-color="#CF6E15" stop-opacity="0.723958"/>
<stop offset="1" stop-color="#CF2015" stop-opacity="0"/>
</linearGradient>
<linearGradient id="paint2_linear_2_36" x1="75.6369" y1="23.6058" x2="75.6369" y2="101.321" gradientUnits="userSpaceOnUse">
<stop stop-color="#CF2015"/>
<stop offset="0.0001" stop-color="#CF6E15" stop-opacity="0.723958"/>
<stop offset="1" stop-color="#CF2015" stop-opacity="0"/>
</linearGradient>
<linearGradient id="paint3_linear_2_36" x1="80.2865" y1="40.2117" x2="80.2865" y2="117.927" gradientUnits="userSpaceOnUse">
<stop stop-color="#CF2015"/>
<stop offset="0.0001" stop-color="#CF6E15" stop-opacity="0.723958"/>
<stop offset="1" stop-color="#CF2015" stop-opacity="0"/>
</linearGradient>
<linearGradient id="paint4_linear_2_36" x1="80.9507" y1="14.9708" x2="80.9507" y2="92.6861" gradientUnits="userSpaceOnUse">
<stop stop-color="#CF2015"/>
<stop offset="0.0001" stop-color="#CF6E15" stop-opacity="0.723958"/>
<stop offset="1" stop-color="#CF2015" stop-opacity="0"/>
</linearGradient>
<linearGradient id="paint5_linear_2_36" x1="85.6004" y1="31.5766" x2="85.6004" y2="109.292" gradientUnits="userSpaceOnUse">
<stop stop-color="#CF2015"/>
<stop offset="0.0001" stop-color="#CF6E15" stop-opacity="0.723958"/>
<stop offset="1" stop-color="#CF2015" stop-opacity="0"/>
</linearGradient>
<linearGradient id="paint6_linear_2_36" x1="87.9252" y1="7" x2="87.9252" y2="84.7153" gradientUnits="userSpaceOnUse">
<stop stop-color="#CF2015"/>
<stop offset="0.0001" stop-color="#CF6E15" stop-opacity="0.723958"/>
<stop offset="1" stop-color="#CF2015" stop-opacity="0"/>
</linearGradient>
<linearGradient id="paint7_linear_2_36" x1="92.5748" y1="23.6058" x2="92.5748" y2="101.321" gradientUnits="userSpaceOnUse">
<stop stop-color="#CF2015"/>
<stop offset="0.0001" stop-color="#CF6E15" stop-opacity="0.723958"/>
<stop offset="1" stop-color="#CF2015" stop-opacity="0"/>
</linearGradient>
</defs>
</svg>
